<svg width="203" height="60" viewBox="0 0 203 60" fill="none" xmlns="http://www.w3.org/2000/svg">
<g clip-path="url(#clip0)">
<path d="M195.63 60H7.42767C3.51717 60 0.334167 56.808 0.334167 52.9005V7.089C0.334167 3.18 3.51717 0 7.42767 0H195.63C199.539 0 202.834 3.18 202.834 7.089V52.9005C202.834 56.808 199.539 60 195.63 60Z" fill="#A6A6A6"/>
<path d="M201.382 52.902C201.382 56.076 198.811 58.647 195.631 58.647H7.42767C4.24917 58.647 1.66917 56.076 1.66917 52.902V7.08748C1.66917 3.91498 4.24917 1.33498 7.42767 1.33498H195.63C198.811 1.33498 201.381 3.91498 201.381 7.08748L201.382 52.902Z" fill="black"/>
<path d="M45.5261 29.676C45.4826 24.8415 49.4846 22.4895 49.6676 22.38C47.4011 19.0755 43.8881 18.624 42.6536 18.588C39.7031 18.2775 36.8411 20.3535 35.3381 20.3535C33.8051 20.3535 31.4906 18.618 28.9961 18.669C25.7861 18.7185 22.7831 20.577 21.1361 23.463C17.7371 29.3475 20.2721 37.995 23.5286 42.7515C25.1576 45.081 27.0611 47.682 29.5526 47.5905C31.9901 47.49 32.9006 46.0365 35.8421 46.0365C38.7566 46.0365 39.6116 47.5905 42.1526 47.532C44.7686 47.49 46.4156 45.192 47.9876 42.8415C49.8701 40.1715 50.6261 37.542 50.6561 37.407C50.5946 37.386 45.5756 35.4705 45.5261 29.676Z" fill="white"/>
<path d="M40.7261 15.459C42.0371 13.8195 42.9341 11.589 42.6851 9.32551C40.7876 9.40951 38.4146 10.638 37.0481 12.2415C35.8391 13.6545 34.7591 15.9705 35.0381 18.1485C37.1696 18.3075 39.3581 17.073 40.7261 15.459Z" fill="white"/>
<path d="M80.8017 47.256H77.3952L75.5292 41.3925H69.0432L67.2657 47.256H63.9492L70.3752 27.294H74.3442L80.8017 47.256ZM74.9667 38.9325L73.2792 33.72C73.1007 33.1875 72.7662 31.9335 72.2727 29.9595H72.2127C72.0162 30.8085 71.6997 32.0625 71.2647 33.72L69.6072 38.9325H74.9667Z" fill="white"/>
<path d="M97.3272 39.882C97.3272 42.33 96.6657 44.265 95.3427 45.6855C94.1577 46.95 92.6862 47.5815 90.9297 47.5815C89.0337 47.5815 87.6717 46.9005 86.8422 45.5385H86.7822V53.121H83.5842V37.6005C83.5842 36.0615 83.5437 34.482 83.4657 32.862H86.2782L86.4567 35.1435H86.5167C87.5832 33.4245 89.2017 32.5665 91.3737 32.5665C93.0717 32.5665 94.4892 33.237 95.6232 34.5795C96.7602 35.9235 97.3272 37.6905 97.3272 39.882ZM94.0692 39.999C94.0692 38.598 93.7542 37.443 93.1212 36.534C92.4297 35.586 91.5012 35.112 90.3372 35.112C89.5482 35.112 88.8312 35.376 88.1907 35.8965C87.5487 36.4215 87.1287 37.107 86.9322 37.956C86.8332 38.352 86.7837 38.676 86.7837 38.931V41.331C86.7837 42.378 87.1047 43.2615 87.7467 43.983C88.3887 44.7045 89.2227 45.0645 90.2487 45.0645C91.4532 45.0645 92.3907 44.5995 93.0612 43.6725C93.7332 42.744 94.0692 41.52 94.0692 39.999Z" fill="white"/>
<path d="M113.883 39.882C113.883 42.33 113.221 44.265 111.897 45.6855C110.713 46.95 109.242 47.5815 107.485 47.5815C105.589 47.5815 104.227 46.9005 103.399 45.5385H103.339V53.121H100.141V37.6005C100.141 36.0615 100.101 34.482 100.023 32.862H102.835L103.014 35.1435H103.074C104.139 33.4245 105.757 32.5665 107.931 32.5665C109.627 32.5665 111.045 33.237 112.182 34.5795C113.314 35.9235 113.883 37.6905 113.883 39.882ZM110.625 39.999C110.625 38.598 110.308 37.443 109.675 36.534C108.984 35.586 108.058 35.112 106.893 35.112C106.102 35.112 105.387 35.376 104.745 35.8965C104.103 36.4215 103.684 37.107 103.488 37.956C103.39 38.352 103.339 38.676 103.339 38.931V41.331C103.339 42.378 103.66 43.2615 104.299 43.983C104.941 44.703 105.775 45.0645 106.804 45.0645C108.009 45.0645 108.946 44.5995 109.617 43.6725C110.289 42.744 110.625 41.52 110.625 39.999Z" fill="white"/>
<path d="M132.393 41.658C132.393 43.356 131.803 44.7375 130.62 45.804C129.319 46.9695 127.509 47.5515 125.182 47.5515C123.034 47.5515 121.312 47.1375 120.009 46.308L120.75 43.6425C122.154 44.4915 123.694 44.9175 125.373 44.9175C126.577 44.9175 127.515 44.6445 128.188 44.1015C128.859 43.5585 129.193 42.8295 129.193 41.9205C129.193 41.1105 128.917 40.428 128.364 39.8745C127.813 39.321 126.894 38.8065 125.61 38.331C122.115 37.0275 120.369 35.118 120.369 32.607C120.369 30.966 120.981 29.6205 122.206 28.5735C123.427 27.525 125.056 27.0015 127.093 27.0015C128.91 27.0015 130.419 27.318 131.623 27.9495L130.824 30.5565C129.699 29.9445 128.427 29.6385 127.003 29.6385C125.878 29.6385 124.999 29.916 124.369 30.468C123.837 30.9615 123.57 31.563 123.57 32.2755C123.57 33.0645 123.874 33.717 124.486 34.23C125.019 34.704 125.986 35.217 127.39 35.7705C129.108 36.462 130.369 37.2705 131.181 38.1975C131.989 39.1215 132.393 40.278 132.393 41.658Z" fill="white"/>
<path d="M142.966 35.262H139.441V42.2505C139.441 44.028 140.062 44.916 141.307 44.916C141.879 44.916 142.353 44.8665 142.728 44.7675L142.816 47.196C142.186 47.4315 141.357 47.55 140.329 47.55C139.066 47.55 138.079 47.1645 137.367 46.395C136.657 45.624 136.3 44.331 136.3 42.5145V35.259H134.2V32.859H136.3V30.2235L139.441 29.2755V32.859H142.966V35.262Z" fill="white"/>
<path d="M158.871 39.9405C158.871 42.153 158.238 43.9695 156.975 45.39C155.65 46.8525 153.892 47.5815 151.701 47.5815C149.589 47.5815 147.907 46.881 146.653 45.48C145.399 44.079 144.772 42.3105 144.772 40.179C144.772 37.9485 145.417 36.1215 146.712 34.701C148.003 33.279 149.746 32.568 151.938 32.568C154.05 32.568 155.749 33.2685 157.032 34.671C158.259 36.0315 158.871 37.788 158.871 39.9405ZM155.553 40.044C155.553 38.7165 155.269 37.578 154.695 36.6285C154.024 35.4795 153.066 34.9065 151.824 34.9065C150.538 34.9065 149.562 35.481 148.891 36.6285C148.317 37.5795 148.033 38.736 148.033 40.104C148.033 41.4315 148.317 42.57 148.891 43.518C149.583 44.667 150.549 45.24 151.795 45.24C153.016 45.24 153.975 44.655 154.666 43.488C155.256 42.5205 155.553 41.37 155.553 40.044Z" fill="white"/>
<path d="M169.266 35.6745C168.949 35.616 168.612 35.586 168.258 35.586C167.133 35.586 166.263 36.0105 165.651 36.861C165.118 37.611 164.851 38.559 164.851 39.7035V47.256H161.655L161.685 37.395C161.685 35.736 161.644 34.2255 161.565 32.8635H164.35L164.467 35.6175H164.556C164.893 34.671 165.426 33.909 166.155 33.3375C166.867 32.823 167.637 32.5665 168.466 32.5665C168.762 32.5665 169.029 32.5875 169.266 32.625V35.6745Z" fill="white"/>
<path d="M183.568 39.378C183.568 39.951 183.531 40.434 183.451 40.8285H173.857C173.895 42.2505 174.358 43.338 175.249 44.088C176.058 44.7585 177.103 45.0945 178.387 45.0945C179.808 45.0945 181.104 44.868 182.269 44.4135L182.77 46.6335C181.408 47.2275 179.8 47.523 177.945 47.523C175.713 47.523 173.961 46.866 172.686 45.5535C171.414 44.241 170.776 42.4785 170.776 40.2675C170.776 38.097 171.369 36.2895 172.555 34.848C173.797 33.309 175.476 32.5395 177.588 32.5395C179.662 32.5395 181.233 33.309 182.299 34.848C183.144 36.0705 183.568 37.5825 183.568 39.378ZM180.519 38.5485C180.54 37.6005 180.331 36.7815 179.898 36.09C179.344 35.2005 178.494 34.7565 177.349 34.7565C176.304 34.7565 175.453 35.19 174.804 36.06C174.271 36.7515 173.955 37.581 173.857 38.547H180.519V38.5485Z" fill="white"/>
<path d="M73.9092 15.0135C73.9092 16.779 73.3797 18.108 72.3222 19.0005C71.3427 19.824 69.9507 20.2365 68.1477 20.2365C67.2537 20.2365 66.4887 20.1975 65.8482 20.1195V10.473C66.6837 10.338 67.5837 10.269 68.5557 10.269C70.2732 10.269 71.5677 10.6425 72.4407 11.3895C73.4187 12.234 73.9092 13.4415 73.9092 15.0135ZM72.2517 15.057C72.2517 13.9125 71.9487 13.035 71.3427 12.423C70.7367 11.8125 69.8517 11.5065 68.6862 11.5065C68.1912 11.5065 67.7697 11.5395 67.4202 11.6085V18.942C67.6137 18.972 67.9677 18.9855 68.4822 18.9855C69.6852 18.9855 70.6137 18.651 71.2677 17.982C71.9217 17.313 72.2517 16.338 72.2517 15.057Z" fill="white"/>
<path d="M82.6977 16.5555C82.6977 17.643 82.3872 18.534 81.7662 19.233C81.1152 19.9515 80.2527 20.31 79.1757 20.31C78.1377 20.31 77.3112 19.9665 76.6947 19.2765C76.0797 18.588 75.7722 17.7195 75.7722 16.6725C75.7722 15.5775 76.0887 14.679 76.7247 13.9815C77.3607 13.284 78.2157 12.9345 79.2927 12.9345C80.3307 12.9345 81.1647 13.278 81.7962 13.9665C82.3962 14.6355 82.6977 15.4995 82.6977 16.5555ZM81.0672 16.6065C81.0672 15.954 80.9262 15.3945 80.6457 14.928C80.3157 14.364 79.8462 14.082 79.2357 14.082C78.6042 14.082 78.1242 14.364 77.7942 14.928C77.5122 15.3945 77.3727 15.963 77.3727 16.635C77.3727 17.2875 77.5137 17.847 77.7942 18.3135C78.1347 18.8775 78.6087 19.1595 79.2207 19.1595C79.8207 19.1595 80.2917 18.873 80.6307 18.2985C80.9217 17.823 81.0672 17.259 81.0672 16.6065Z" fill="white"/>
<path d="M94.4817 13.0785L92.2692 20.1495H90.8292L89.9127 17.079C89.6802 16.3125 89.4912 15.5505 89.3442 14.7945H89.3157C89.1792 15.5715 88.9902 16.332 88.7472 17.079L87.7737 20.1495H86.3172L84.2367 13.0785H85.8522L86.6517 16.44C86.8452 17.235 87.0042 17.9925 87.1317 18.7095H87.1602C87.2772 18.1185 87.4707 17.3655 87.7437 16.455L88.7472 13.08H90.0282L90.9897 16.383C91.2222 17.1885 91.4112 17.964 91.5567 18.711H91.6002C91.7067 17.9835 91.8672 17.208 92.0802 16.383L92.9382 13.08H94.4817V13.0785Z" fill="white"/>
<path d="M102.631 20.1495H101.059V16.0995C101.059 14.8515 100.585 14.2275 99.6342 14.2275C99.1677 14.2275 98.7912 14.3985 98.4987 14.742C98.2092 15.0855 98.0622 15.4905 98.0622 15.954V20.148H96.4902V15.099C96.4902 14.478 96.4707 13.8045 96.4332 13.0755H97.8147L97.8882 14.181H97.9317C98.1147 13.8375 98.3877 13.554 98.7462 13.3275C99.1722 13.0635 99.6492 12.93 100.171 12.93C100.831 12.93 101.38 13.143 101.817 13.5705C102.36 14.094 102.631 14.8755 102.631 15.9135V20.1495Z" fill="white"/>
<path d="M106.966 20.1495H105.396V9.83399H106.966V20.1495Z" fill="white"/>
<path d="M116.221 16.5555C116.221 17.643 115.911 18.534 115.29 19.233C114.639 19.9515 113.775 20.31 112.699 20.31C111.66 20.31 110.833 19.9665 110.218 19.2765C109.603 18.588 109.296 17.7195 109.296 16.6725C109.296 15.5775 109.612 14.679 110.248 13.9815C110.884 13.284 111.739 12.9345 112.815 12.9345C113.854 12.9345 114.687 13.278 115.32 13.9665C115.92 14.6355 116.221 15.4995 116.221 16.5555ZM114.589 16.6065C114.589 15.954 114.448 15.3945 114.168 14.928C113.839 14.364 113.368 14.082 112.759 14.082C112.126 14.082 111.646 14.364 111.318 14.928C111.036 15.3945 110.896 15.963 110.896 16.635C110.896 17.2875 111.037 17.847 111.318 18.3135C111.658 18.8775 112.132 19.1595 112.744 19.1595C113.344 19.1595 113.814 18.873 114.153 18.2985C114.445 17.823 114.589 17.259 114.589 16.6065Z" fill="white"/>
<path d="M123.829 20.1495H122.418L122.301 19.335H122.257C121.774 19.9845 121.086 20.31 120.192 20.31C119.524 20.31 118.984 20.0955 118.578 19.6695C118.209 19.2825 118.024 18.801 118.024 18.2295C118.024 17.3655 118.384 16.707 119.109 16.251C119.832 15.795 120.849 15.5715 122.158 15.582V15.45C122.158 14.5185 121.669 14.0535 120.69 14.0535C119.992 14.0535 119.377 14.229 118.846 14.577L118.527 13.545C119.184 13.1385 119.995 12.9345 120.952 12.9345C122.8 12.9345 123.727 13.9095 123.727 15.8595V18.4635C123.727 19.17 123.762 19.7325 123.829 20.1495ZM122.197 17.7195V16.629C120.463 16.599 119.596 17.0745 119.596 18.054C119.596 18.423 119.695 18.699 119.898 18.8835C120.1 19.068 120.358 19.1595 120.666 19.1595C121.011 19.1595 121.333 19.05 121.627 18.8325C121.923 18.6135 122.104 18.336 122.172 17.9955C122.188 17.919 122.197 17.826 122.197 17.7195Z" fill="white"/>
<path d="M132.762 20.1495H131.367L131.293 19.014H131.25C130.804 19.878 130.045 20.31 128.979 20.31C128.127 20.31 127.417 19.9755 126.855 19.3065C126.292 18.6375 126.012 17.769 126.012 16.7025C126.012 15.558 126.316 14.631 126.928 13.923C127.521 13.263 128.247 12.933 129.111 12.933C130.06 12.933 130.725 13.2525 131.103 13.893H131.133V9.83399H132.706V18.2445C132.706 18.933 132.724 19.5675 132.762 20.1495ZM131.133 17.1675V15.9885C131.133 15.7845 131.118 15.6195 131.089 15.4935C131.001 15.1155 130.81 14.7975 130.521 14.541C130.228 14.2845 129.876 14.1555 129.469 14.1555C128.883 14.1555 128.424 14.388 128.086 14.8545C127.752 15.321 127.582 15.9165 127.582 16.644C127.582 17.343 127.743 17.91 128.065 18.3465C128.406 18.8115 128.865 19.044 129.439 19.044C129.955 19.044 130.368 18.8505 130.681 18.462C130.984 18.1035 131.133 17.6715 131.133 17.1675Z" fill="white"/>
<path d="M146.206 16.5555C146.206 17.643 145.896 18.534 145.275 19.233C144.624 19.9515 143.763 20.31 142.684 20.31C141.648 20.31 140.821 19.9665 140.203 19.2765C139.588 18.588 139.281 17.7195 139.281 16.6725C139.281 15.5775 139.597 14.679 140.233 13.9815C140.869 13.284 141.724 12.9345 142.803 12.9345C143.839 12.9345 144.675 13.278 145.305 13.9665C145.905 14.6355 146.206 15.4995 146.206 16.5555ZM144.577 16.6065C144.577 15.954 144.436 15.3945 144.156 14.928C143.824 14.364 143.356 14.082 142.744 14.082C142.114 14.082 141.634 14.364 141.303 14.928C141.021 15.3945 140.881 15.963 140.881 16.635C140.881 17.2875 141.022 17.847 141.303 18.3135C141.643 18.8775 142.117 19.1595 142.729 19.1595C143.329 19.1595 143.802 18.873 144.141 18.2985C144.43 17.823 144.577 17.259 144.577 16.6065Z" fill="white"/>
<path d="M154.659 20.1495H153.088V16.0995C153.088 14.8515 152.614 14.2275 151.662 14.2275C151.195 14.2275 150.819 14.3985 150.528 14.742C150.237 15.0855 150.091 15.4905 150.091 15.954V20.148H148.518V15.099C148.518 14.478 148.5 13.8045 148.462 13.0755H149.842L149.916 14.181H149.959C150.144 13.8375 150.417 13.554 150.774 13.3275C151.201 13.0635 151.677 12.93 152.2 12.93C152.859 12.93 153.408 13.143 153.844 13.5705C154.389 14.094 154.659 14.8755 154.659 15.9135V20.1495Z" fill="white"/>
<path d="M165.238 14.256H163.507V17.691C163.507 18.564 163.815 19.0005 164.424 19.0005C164.706 19.0005 164.94 18.9765 165.124 18.927L165.165 20.1195C164.854 20.2365 164.446 20.295 163.944 20.295C163.323 20.295 162.84 20.106 162.49 19.728C162.139 19.35 161.965 18.714 161.965 17.8215V14.256H160.932V13.0785H161.965V11.7825L163.506 11.3175V13.077H165.237V14.256H165.238Z" fill="white"/>
<path d="M173.56 20.1495H171.987V16.1295C171.987 14.862 171.513 14.2275 170.563 14.2275C169.834 14.2275 169.336 14.595 169.063 15.33C169.017 15.4845 168.99 15.6735 168.99 15.8955V20.148H167.419V9.83399H168.99V14.0955H169.02C169.515 13.32 170.224 12.933 171.144 12.933C171.795 12.933 172.333 13.146 172.761 13.5735C173.293 14.106 173.56 14.898 173.56 15.945V20.1495Z" fill="white"/>
<path d="M182.145 16.2795C182.145 16.5615 182.124 16.7985 182.086 16.992H177.372C177.393 17.691 177.618 18.2235 178.054 18.5925C178.453 18.9225 178.968 19.0875 179.598 19.0875C180.295 19.0875 180.931 18.9765 181.504 18.753L181.75 19.845C181.08 20.136 180.291 20.2815 179.377 20.2815C178.282 20.2815 177.42 19.959 176.796 19.314C176.169 18.669 175.858 17.8035 175.858 16.7175C175.858 15.651 176.148 14.763 176.731 14.055C177.34 13.299 178.164 12.921 179.203 12.921C180.22 12.921 180.993 13.299 181.515 14.055C181.936 14.655 182.145 15.3975 182.145 16.2795ZM180.645 15.873C180.657 15.4065 180.553 15.0045 180.34 14.6655C180.067 14.229 179.652 14.01 179.089 14.01C178.576 14.01 178.158 14.223 177.838 14.6505C177.577 14.991 177.423 15.3975 177.372 15.873H180.645Z" fill="white"/>
</g>
<defs>
<clipPath id="clip0">
<rect width="202.5" height="60" fill="white" transform="translate(0.334167)"/>
</clipPath>
</defs>
</svg>
